<svg height="512pt" viewBox="0 0 512 512" width="512pt" xmlns="http://www.w3.org/2000/svg"><path d="m512 256c0 141.386719-114.613281 256-256 256s-256-114.613281-256-256 114.613281-256 256-256 256 114.613281 256 256zm0 0" fill="#1abc9c"/><path d="m222.457031 300.941406c-3.347656 3.878906-19.171875-16.046875-23.746093-12.410156 0 0-.53125 50.085938-57.453126 65.96875-39.316406 10.972656-73.589843-13.09375-73.589843-13.09375s44.339843 14.832031 44.339843-37.695312c0-66.511719 34.683594-79.828126 80.691407-78.957032 42.429687.8125 59.386719 41.90625 29.757812 76.1875zm0 0" fill="#e8c018"/><path d="m382.113281 449.578125v29.246094c-30.136719 17.09375-64.085937 28.253906-100.257812 31.878906-5.183594.523437-10.410157.886719-15.675781 1.097656-3.375.136719-6.769532.199219-10.1875.199219-3.417969 0-6.8125-.0625-10.1875-.199219-5.265626-.210937-10.492188-.574219-15.671876-1.085937-17.828124-1.796875-35.109374-5.414063-51.671874-10.667969-17.03125-5.402344-33.300782-12.550781-48.585938-21.222656v-29.246094c0-49.917969 38.441406-90.867187 87.351562-94.816406 2.570313-.207031 5.164063-.3125 7.785157-.3125h61.953125c7.324218 0 14.449218.816406 21.292968 2.382812 42.296876 9.675781 73.855469 47.53125 73.855469 92.746094zm0 0" fill="#0c85a5"/><path d="m382.121094 449.578125v29.246094c-22.726563 12.894531-47.617188 22.414062-74 27.855469-14.777344 3.0625-30.023438 4.851562-45.613282 5.238281-2.160156.050781-4.335937.082031-6.507812.082031-27.03125 0-53.070312-4.191406-77.53125-11.953125v-50.46875c0-6.738281.699219-13.324219 2.039062-19.664063 2.714844-12.957031 8.074219-24.933593 15.484376-35.359374 17.238281-24.273438 45.589843-40.105469 77.625-40.105469h13.355468c52.554688 0 95.148438 42.589843 95.148438 95.128906zm0 0" fill="#1da2dd"/><path d="m310.683594 357.417969v8.578125c0 30.195312-24.484375 54.679687-54.679688 54.679687h-.011718c-23.78125 0-44.03125-15.195312-51.542969-36.40625-2.027344-5.714843-3.136719-11.859375-3.136719-18.273437v-8.570313c5.152344-1.324219 10.46875-2.222656 15.925781-2.664062 2.570313-.207031 5.160157-.3125 7.785157-.3125h61.949218c7.324219 0 14.453125.816406 21.296875 2.382812.804688.1875 1.617188.375 2.414063.585938zm0 0" fill="#f6ba97"/><path d="m273.621094 354.449219c-27.25 0-51.828125 11.460937-69.171875 29.820312-2.027344-5.714843-3.136719-11.859375-3.136719-18.273437v-8.570313c5.152344-1.324219 10.46875-2.222656 15.925781-2.664062 2.570313-.207031 5.160157-.3125 7.785157-.3125zm0 0" fill="#eaa27f"/><path d="m289.9375 317.800781v41.65625c0 15.25-10.054688 28.140625-23.90625 32.421875-3.167969.984375-6.546875 1.515625-10.042969 1.515625-18.746093 0-33.9375-15.191406-33.9375-33.9375v-41.65625zm0 0" fill="#eaa27f"/><path d="m289.9375 356.820312v2.636719c0 15.25-10.054688 28.140625-23.90625 32.421875-12.496094-3.839844-21.890625-14.707031-23.625-28 2.265625.136719 4.546875.207032 6.835938.207032 6.421874 0 12.71875-.507813 18.847656-1.515626 7.558594-1.214843 14.859375-3.160156 21.847656-5.75zm0 0" fill="#f6ba97"/><path d="m177.1875 449.578125v50.058594c-16.574219-5.359375-32.402344-12.359375-47.304688-20.8125v-29.246094zm0 0" fill="#eaa27f"/><path d="m382.121094 449.578125v29.246094c-14.898438 8.453125-30.730469 15.453125-47.300782 20.8125v-50.058594zm0 0" fill="#f6ba97"/><path d="m334.820312 449.578125h47.300782v16.003906h-47.300782zm0 0" fill="#f2efea"/><path d="m129.882812 449.578125h47.304688v16.003906h-47.304688zm0 0" fill="#f2efea"/><path d="m299.105469 451.476562v56.886719c-14.023438 2.390625-28.421875 3.636719-43.101563 3.636719-14.679687 0-29.082031-1.246094-43.101562-3.625v-56.898438zm0 0" fill="#f2efea"/><path d="m161.351562 249.535156c0 15.714844-11.476562 28.742188-26.507812 31.160156-1.640625.265626-3.332031.40625-5.054688.40625-17.4375 0-31.566406-14.128906-31.566406-31.566406s14.128906-31.566406 31.566406-31.566406c1.722657 0 3.414063.140625 5.054688.40625 15.03125 2.417969 26.507812 15.445312 26.507812 31.160156zm0 0" fill="#f6ba97"/><path d="m161.351562 249.535156c0 15.714844-11.476562 28.742188-26.507812 31.160156-2.730469-9.929687-4.1875-20.375-4.1875-31.160156s1.457031-21.230468 4.1875-31.160156c15.03125 2.417969 26.507812 15.445312 26.507812 31.160156zm0 0" fill="#eaa27f"/><path d="m141.070312 249.535156c0 6.230469-5.050781 11.28125-11.28125 11.28125-6.230468 0-11.28125-5.050781-11.28125-11.28125 0-6.230468 5.050782-11.28125 11.28125-11.28125 6.230469 0 11.28125 5.050782 11.28125 11.28125zm0 0" fill="#eaa27f"/><path d="m350.636719 249.535156c0 15.714844 11.480469 28.742188 26.511719 31.160156 1.640624.265626 3.332031.40625 5.054687.40625 17.4375 0 31.566406-14.128906 31.566406-31.566406s-14.128906-31.566406-31.566406-31.566406c-1.722656 0-3.414063.140625-5.054687.40625-15.03125 2.417969-26.511719 15.445312-26.511719 31.160156zm0 0" fill="#f6ba97"/><path d="m350.636719 249.535156c0 15.714844 11.480469 28.742188 26.511719 31.160156 2.726562-9.929687 4.1875-20.375 4.1875-31.160156s-1.457032-21.230468-4.1875-31.160156c-15.03125 2.417969-26.511719 15.445312-26.511719 31.160156zm0 0" fill="#eaa27f"/><path d="m393.484375 249.535156c0 6.230469-5.050781 11.28125-11.28125 11.28125s-11.28125-5.050781-11.28125-11.28125c0-6.230468 5.050781-11.28125 11.28125-11.28125s11.28125 5.050782 11.28125 11.28125zm0 0" fill="#eaa27f"/><path d="m383.886719 188.039062v44.722657c0 30.574219-10.960938 60.152343-30.863281 83.308593-18.476563 21.515626-43.5625 36.257813-71.097657 41.929688-1.796875.367188-3.605469.703125-5.421875.996094l-.523437.09375c-6.507813 1.03125-13.207031 1.554687-19.988281 1.554687-8.882813 0-17.554688-.90625-25.933594-2.644531-58.128906-12.015625-101.949219-63.601562-101.949219-125.238281v-44.722657c0-14.578124 2.421875-28.859374 7.230469-42.453124 17.949218-51.097657 66.445312-85.441407 120.652344-85.441407 6.707031 0 13.417968.519531 19.925781 1.546875 29.78125 4.660156 57.105469 19.863282 76.914062 42.808594 20.023438 23.195312 31.054688 52.859375 31.054688 83.539062zm0 0" fill="#2f373b"/><path d="m373.4375 188.039062v44.722657c0 58.441406-42.691406 106.921875-98.59375 115.917969-.1875.03125-.386719.0625-.574219.097656-5.945312.949218-12.050781 1.417968-18.277343 1.417968-64.855469 0-117.4375-52.578124-117.4375-117.433593v-44.722657c0-13.65625 2.332031-26.78125 6.636718-38.976562 11.285156-32.109375 36.132813-57.832031 67.679688-70.289062 13.351562-5.285157 27.898437-8.179688 43.121094-8.179688h.011718c6.214844 0 12.328125.480469 18.285156 1.417969 56.171876 8.777343 99.148438 57.386719 99.148438 116.027343zm0 0" fill="#eaa27f"/><path d="m373.4375 188.039062v44.722657c0 58.441406-42.695312 106.925781-98.597656 115.921875-.1875.03125-.386719.0625-.574219.09375-56.175781-8.777344-99.140625-57.386719-99.140625-116.015625v-44.722657c0-58.640624 42.976562-107.246093 99.160156-116.023437 56.175782 8.777344 99.152344 57.382813 99.152344 116.023437zm0 0" fill="#f6ba97"/><g fill="#eaa27f"><path d="m335.929688 263.597656c0 8.078125-6.550782 14.628906-14.628907 14.628906s-14.628906-6.550781-14.628906-14.628906c0-8.082031 6.550781-14.628906 14.628906-14.628906s14.628907 6.546875 14.628907 14.628906zm0 0"/><path d="m205.316406 263.597656c0 8.078125-6.546875 14.628906-14.628906 14.628906-8.078125 0-14.628906-6.550781-14.628906-14.628906 0-8.082031 6.550781-14.628906 14.628906-14.628906 8.082031 0 14.628906 6.546875 14.628906 14.628906zm0 0"/><path d="m319.0625 222.84375c0-10.773438-8.730469-19.503906-19.503906-19.503906-10.773438 0-19.507813 8.730468-19.507813 19.503906"/><path d="m231.945312 222.84375c0-10.773438-8.730468-19.503906-19.503906-19.503906-10.773437 0-19.507812 8.730468-19.507812 19.503906"/></g><path d="m225.761719 231.148438c0 7.355468-5.964844 13.320312-13.320313 13.320312-7.359375 0-13.324218-5.964844-13.324218-13.320312 0-7.359376 5.964843-13.324219 13.324218-13.324219 7.355469 0 13.320313 5.964843 13.320313 13.324219zm0 0" fill="#2f373b"/><path d="m312.882812 231.148438c0 7.355468-5.964843 13.320312-13.324218 13.320312s-13.324219-5.964844-13.324219-13.320312c0-7.359376 5.964844-13.324219 13.324219-13.324219s13.324218 5.964843 13.324218 13.324219zm0 0" fill="#2f373b"/><path d="m269.320312 269.914062h-26.644531c-3.171875 0-5.746093-2.570312-5.746093-5.746093s2.574218-5.746094 5.746093-5.746094h26.644531c3.175782 0 5.746094 2.570313 5.746094 5.746094s-2.570312 5.746093-5.746094 5.746093zm0 0" fill="#eaa27f"/><path d="m256 306.273438c-9.835938 0-19.667969-2.460938-28.632812-7.390626-2.527344-1.390624-3.449219-4.566406-2.0625-7.09375 1.390624-2.527343 4.570312-3.449218 7.097656-2.0625 14.777344 8.125 32.417968 8.125 47.195312 0 2.527344-1.390624 5.703125-.46875 7.09375 2.0625 1.390625 2.527344.46875 5.703126-2.058594 7.09375-8.964843 4.925782-18.800781 7.390626-28.632812 7.390626zm0 0" fill="#eaa27f"/><path d="m373.4375 188.039062v44.722657s-22.265625-107.835938-117.433594-107.835938h-.023437c-30.050781 0-52.828125 10.753907-69.933594 25.464844-36.496094 31.378906-47.167969 80.792969-47.492187 82.328125v-44.679688c0-13.65625 2.332031-26.78125 6.636718-38.976562 16.058594-45.703125 59.613282-78.46875 110.800782-78.46875h.011718c6.214844 0 12.328125.480469 18.285156 1.417969 56.171876 8.777343 99.148438 57.386719 99.148438 116.027343zm0 0" fill="#ffd833"/><path d="m223.046875 228.796875c0 3.152344-2.554687 5.707031-5.710937 5.707031-3.152344 0-5.707032-2.554687-5.707032-5.707031s2.554688-5.710937 5.707032-5.710937c3.15625 0 5.710937 2.558593 5.710937 5.710937zm0 0" fill="#fff"/><path d="m310.820312 228.796875c0 3.152344-2.558593 5.707031-5.710937 5.707031s-5.707031-2.554687-5.707031-5.707031 2.554687-5.710937 5.707031-5.710937 5.710937 2.558593 5.710937 5.710937zm0 0" fill="#fff"/><path d="m186.046875 150.390625c-36.496094 31.378906-47.167969 80.792969-47.492187 82.328125v-44.679688c0-13.65625 2.332031-26.78125 6.636718-38.976562 11.285156-32.109375 36.132813-57.832031 67.679688-70.289062-19.019532 18.871093-28.820313 48.503906-26.824219 71.617187zm0 0" fill="#e8c018"/><path d="m255.515625 124.992188c-16.117187 16.121093-16.117187 42.253906 0 58.371093 16.121094 16.117188 42.253906 16.117188 58.371094 0" fill="#ffd833"/><path d="m399.472656 148.832031c0 10.875-8.800781 19.675781-19.675781 19.675781h-245.996094c-5.429687 0-10.355469-2.195312-13.921875-5.765624-3.570312-3.554688-5.769531-8.464844-5.769531-13.910157 0-35.769531 13.171875-68.472656 34.917969-93.523437 1.359375.25 2.742187.375 4.171875.375 12.675781 0 22.964843-10.269532 22.964843-22.964844 0-.53125-.015624-1.0625-.058593-1.578125 11-7.558594 23.121093-13.617187 36.035156-17.871094 2.828125 1.257813 5.964844 1.945313 9.253906 1.945313 6.941407 0 13.152344-3.082032 17.351563-7.9375 5.90625-.742188 11.9375-1.132813 18.054687-1.132813 6.113281 0 12.132813.378907 18.039063 1.132813 4.195312 4.855468 10.410156 7.9375 17.351562 7.9375 3.289063 0 6.410156-.6875 9.238282-1.945313 12.886718 4.238281 24.980468 10.269531 35.949218 17.800781-.039062.542969-.054687 1.089844-.054687 1.648438 0 12.695312 10.273437 22.964844 22.953125 22.964844 1.453125 0 2.882812-.140625 4.265625-.390625 21.761719 25.050781 34.929687 57.769531 34.929687 93.539062zm0 0" fill="#0c85a5"/><path d="m399.476562 148.835938c0 10.875-8.808593 19.671874-19.683593 19.671874h-245.992188c-5.433593 0-10.351562-2.191406-13.925781-5.765624-3.5625-3.554688-5.769531-8.464844-5.769531-13.90625 0-35.769532 13.175781-68.496094 34.929687-93.539063v43.714844c0 7.472656 6.050782 13.523437 13.523438 13.523437 7.46875 0 13.53125-6.050781 13.53125-13.523437v-67.855469c5.476562-3.769531 11.222656-7.167969 17.21875-10.144531 5.957031-2.957031 12.164062-5.527344 18.558594-7.628907v66.039063c0 7.472656 6.039062 13.519531 13.511718 13.519531 7.480469 0 13.539063-6.046875 13.539063-13.519531v-72.160156c5.863281-.742188 11.820312-1.117188 17.878906-1.117188 6.0625 0 12.027344.375 17.878906 1.117188v72.160156c0 7.472656 6.050781 13.519531 13.53125 13.519531 7.472657 0 13.53125-6.046875 13.53125-13.519531v-66.039063c12.820313 4.234376 24.835938 10.25 35.757813 17.773438v67.855469c0 7.472656 6.058594 13.523437 13.53125 13.523437 7.46875 0 13.53125-6.050781 13.53125-13.523437v-43.707031c21.742187 25.058593 34.917968 57.761718 34.917968 93.53125zm0 0" fill="#1da2dd"/><path d="m283.109375 350.082031c0 2.757813-.410156 5.410157-1.183594 7.917969-1.796875.367188-3.605469.703125-5.421875.996094l-.523437.09375c-6.507813 1.03125-13.207031 1.554687-19.988281 1.554687-8.882813 0-17.554688-.90625-25.933594-2.644531-.773438-2.507812-1.179688-5.160156-1.179688-7.917969 0-14.984375 12.140625-27.125 27.113282-27.125 14.984374 0 27.117187 12.140625 27.117187 27.125zm0 0" fill="#2f373b"/><path d="m204.324219 168.507812h-70.523438c-5.433593 0-10.351562-2.191406-13.925781-5.765624-3.5625-3.554688-5.769531-8.464844-5.769531-13.90625 0-35.769532 13.175781-68.496094 34.929687-93.539063v43.714844c0 7.472656 6.050782 13.523437 13.523438 13.523437 7.46875 0 13.53125-6.050781 13.53125-13.523437v-67.855469c5.476562-3.769531 11.222656-7.167969 17.21875-10.144531 0 55.890625-25.035156 147.496093 11.015625 147.496093zm0 0" fill="#0c85a5"/><path d="m273.636719 467.152344v44.648437c-11.855469-.210937-23.617188-.574219-35.285157-1.085937v-43.5625zm0 0" fill="#2f373b"/><path d="m164.492188 430.820312v64.335938c-11.578126-4.429688-22.75-9.675781-33.4375-15.675781-6.8125-3.824219-13.4375-7.941407-19.851563-12.359375v-36.300782c0-14.710937 11.929687-26.644531 26.644531-26.644531 3.507813 0 6.851563.679688 9.925782 1.914063 3.363281 1.347656 6.394531 3.363281 8.914062 5.890625 4.816406 4.828125 7.804688 11.484375 7.804688 18.839843zm0 0" fill="#eaa27f"/><path d="m164.492188 430.820312v64.335938c-11.578126-4.429688-22.75-9.675781-33.4375-15.675781v-48.660157c0-11.199218 6.917968-20.792968 16.71875-24.730468 3.363281 1.347656 6.394531 3.363281 8.914062 5.890625 4.816406 4.828125 7.804688 11.484375 7.804688 18.839843zm0 0" fill="#f6ba97"/><path d="m400.785156 430.820312v36.320313c-10.597656 7.292969-21.765625 13.792969-33.4375 19.4375-6.46875 3.132813-13.09375 5.996094-19.851562 8.585937v-64.34375c0-14.710937 11.929687-26.644531 26.644531-26.644531 3.507813 0 6.851563.679688 9.925781 1.914063 3.363282 1.347656 6.394532 3.363281 8.914063 5.890625 4.816406 4.828125 7.804687 11.484375 7.804687 18.839843zm0 0" fill="#eaa27f"/><path d="m400.785156 430.820312v36.320313c-10.597656 7.292969-21.765625 13.792969-33.4375 19.4375v-55.757813c0-11.199218 6.917969-20.792968 16.71875-24.730468 3.363282 1.347656 6.394532 3.363281 8.914063 5.890625 4.816406 4.828125 7.804687 11.484375 7.804687 18.839843zm0 0" fill="#f6ba97"/><path d="m444.0625 416.152344v13.539062c-2.308594 2.5-4.667969 4.953125-7.082031 7.355469h-84.910157c-7.386718 0-14.261718 3.324219-18.847656 9.113281l-15.589844 19.644532c-8.582031 10.8125-21.421874 17.019531-35.226562 17.019531h-52.828125c-13.804687 0-26.644531-6.207031-35.222656-17.019531l-15.589844-19.644532c-4.589844-5.789062-11.464844-9.113281-18.851563-9.113281h-84.875c-2.425781-2.414063-4.796874-4.878906-7.117187-7.386719v-13.507812h91.992187c13.804688 0 26.644532 6.203125 35.222657 17.019531l15.589843 19.644531c4.589844 5.789063 11.464844 9.109375 18.851563 9.109375h52.828125c7.390625 0 14.265625-3.320312 18.851562-9.109375l15.589844-19.644531c8.578125-10.816406 21.421875-17.019531 35.222656-17.019531zm0 0" fill="#2f373b"/><path d="m107.058594 395.832031h29.746094c11.203124 0 20.796874 6.917969 24.722656 16.71875 1.246094 3.070313 1.925781 6.414063 1.925781 9.925781 0 14.714844-11.933594 26.644532-26.648437 26.644532h-29.746094c-14.710938 0-26.644532-11.929688-26.644532-26.644532 0-3.511718.679688-6.855468 1.910157-9.925781 1.347656-3.363281 3.367187-6.394531 5.894531-8.914062 4.828125-4.816407 11.484375-7.804688 18.839844-7.804688zm0 0" fill="#eaa27f"/><path d="m107.058594 395.832031h29.746094c11.203124 0 20.796874 6.917969 24.722656 16.71875-3.925782 9.800781-13.519532 16.71875-24.722656 16.71875h-29.746094c-11.203125 0-20.792969-6.917969-24.734375-16.71875 1.347656-3.363281 3.367187-6.394531 5.894531-8.914062 4.828125-4.816407 11.484375-7.804688 18.839844-7.804688zm0 0" fill="#f6ba97"/><path d="m375.179688 395.832031h29.75c11.199218 0 20.792968 6.917969 24.722656 16.71875 1.242187 3.070313 1.921875 6.414063 1.921875 9.925781 0 14.714844-11.933594 26.644532-26.644531 26.644532h-29.75c-14.710938 0-26.644532-11.929688-26.644532-26.644532 0-3.511718.679688-6.855468 1.914063-9.925781 1.347656-3.363281 3.363281-6.394531 5.890625-8.914062 4.828125-4.816407 11.484375-7.804688 18.839844-7.804688zm0 0" fill="#eaa27f"/><path d="m375.179688 395.832031h29.75c11.199218 0 20.792968 6.917969 24.722656 16.71875-3.929688 9.800781-13.523438 16.71875-24.722656 16.71875h-29.75c-11.199219 0-20.792969-6.917969-24.730469-16.71875 1.347656-3.363281 3.363281-6.394531 5.890625-8.914062 4.828125-4.816407 11.484375-7.804688 18.839844-7.804688zm0 0" fill="#f6ba97"/></svg>
